<mxfile host="app.diagrams.net" modified="2020-11-30T03:31:12.981Z" agent="5.0 (Windows NT 10.0; Win64; x64) AppleWebKit/537.36 (KHTML, like Gecko) Chrome/87.0.4280.66 Safari/537.36" etag="MKMIruvZadAwg9b3cHpP" version="13.10.4" type="github">
  <diagram id="R2lEEEUBdFMjLlhIrx00" name="Page-1">
    <mxGraphModel dx="1221" dy="654" grid="1" gridSize="10" guides="1" tooltips="1" connect="1" arrows="1" fold="1" page="1" pageScale="1" pageWidth="850" pageHeight="1100" math="0" shadow="0" extFonts="Permanent Marker^https://fonts.googleapis.com/css?family=Permanent+Marker">
      <root>
        <mxCell id="0" />
        <mxCell id="1" parent="0" />
        <mxCell id="HY0GFq4OiniCcZNZX5Ss-1" value="pasien" style="whiteSpace=wrap;html=1;align=center;fillColor=#d80073;fontColor=#ffffff;strokeColor=none;" vertex="1" parent="1">
          <mxGeometry x="80" y="200" width="100" height="40" as="geometry" />
        </mxCell>
        <mxCell id="HY0GFq4OiniCcZNZX5Ss-13" value="" style="edgeStyle=orthogonalEdgeStyle;rounded=0;orthogonalLoop=1;jettySize=auto;html=1;endArrow=none;endFill=0;strokeWidth=3;strokeColor=#999999;" edge="1" parent="1" source="HY0GFq4OiniCcZNZX5Ss-2" target="HY0GFq4OiniCcZNZX5Ss-12">
          <mxGeometry relative="1" as="geometry" />
        </mxCell>
        <mxCell id="HY0GFq4OiniCcZNZX5Ss-15" value="" style="edgeStyle=orthogonalEdgeStyle;rounded=0;orthogonalLoop=1;jettySize=auto;html=1;endArrow=none;endFill=0;strokeWidth=3;strokeColor=#999999;" edge="1" parent="1" source="HY0GFq4OiniCcZNZX5Ss-2" target="HY0GFq4OiniCcZNZX5Ss-14">
          <mxGeometry relative="1" as="geometry" />
        </mxCell>
        <mxCell id="HY0GFq4OiniCcZNZX5Ss-17" value="" style="edgeStyle=orthogonalEdgeStyle;rounded=0;orthogonalLoop=1;jettySize=auto;html=1;endArrow=none;endFill=0;strokeWidth=3;strokeColor=#999999;" edge="1" parent="1" source="HY0GFq4OiniCcZNZX5Ss-2" target="HY0GFq4OiniCcZNZX5Ss-16">
          <mxGeometry relative="1" as="geometry" />
        </mxCell>
        <mxCell id="HY0GFq4OiniCcZNZX5Ss-2" value="registrasi" style="shape=rhombus;perimeter=rhombusPerimeter;whiteSpace=wrap;html=1;align=center;fillColor=#f0a30a;fontColor=#ffffff;strokeColor=none;" vertex="1" parent="1">
          <mxGeometry x="280" y="190" width="120" height="60" as="geometry" />
        </mxCell>
        <mxCell id="HY0GFq4OiniCcZNZX5Ss-18" value="" style="edgeStyle=orthogonalEdgeStyle;rounded=0;orthogonalLoop=1;jettySize=auto;html=1;endArrow=none;endFill=0;strokeWidth=3;strokeColor=#999999;" edge="1" parent="1" source="HY0GFq4OiniCcZNZX5Ss-3" target="HY0GFq4OiniCcZNZX5Ss-16">
          <mxGeometry relative="1" as="geometry" />
        </mxCell>
        <mxCell id="HY0GFq4OiniCcZNZX5Ss-3" value="tindakkan" style="shape=rhombus;perimeter=rhombusPerimeter;whiteSpace=wrap;html=1;align=center;fillColor=#f0a30a;fontColor=#ffffff;strokeColor=none;" vertex="1" parent="1">
          <mxGeometry x="70" y="330" width="120" height="60" as="geometry" />
        </mxCell>
        <mxCell id="HY0GFq4OiniCcZNZX5Ss-6" value="" style="endArrow=none;html=1;rounded=0;entryX=0;entryY=0.5;entryDx=0;entryDy=0;exitX=1;exitY=0.5;exitDx=0;exitDy=0;strokeWidth=3;strokeColor=#999999;" edge="1" parent="1" source="HY0GFq4OiniCcZNZX5Ss-1" target="HY0GFq4OiniCcZNZX5Ss-2">
          <mxGeometry relative="1" as="geometry">
            <mxPoint x="170" y="230" as="sourcePoint" />
            <mxPoint x="330" y="230" as="targetPoint" />
          </mxGeometry>
        </mxCell>
        <mxCell id="HY0GFq4OiniCcZNZX5Ss-7" value="1" style="resizable=0;html=1;align=left;verticalAlign=bottom;" connectable="0" vertex="1" parent="HY0GFq4OiniCcZNZX5Ss-6">
          <mxGeometry x="-1" relative="1" as="geometry" />
        </mxCell>
        <mxCell id="HY0GFq4OiniCcZNZX5Ss-8" value="1" style="resizable=0;html=1;align=right;verticalAlign=bottom;" connectable="0" vertex="1" parent="HY0GFq4OiniCcZNZX5Ss-6">
          <mxGeometry x="1" relative="1" as="geometry" />
        </mxCell>
        <mxCell id="HY0GFq4OiniCcZNZX5Ss-9" value="" style="endArrow=none;html=1;rounded=0;exitX=0.5;exitY=1;exitDx=0;exitDy=0;entryX=0.5;entryY=0;entryDx=0;entryDy=0;strokeWidth=3;strokeColor=#999999;" edge="1" parent="1" source="HY0GFq4OiniCcZNZX5Ss-1" target="HY0GFq4OiniCcZNZX5Ss-3">
          <mxGeometry relative="1" as="geometry">
            <mxPoint x="100" y="300" as="sourcePoint" />
            <mxPoint x="260" y="300" as="targetPoint" />
          </mxGeometry>
        </mxCell>
        <mxCell id="HY0GFq4OiniCcZNZX5Ss-10" value="1" style="resizable=0;html=1;align=left;verticalAlign=bottom;" connectable="0" vertex="1" parent="HY0GFq4OiniCcZNZX5Ss-9">
          <mxGeometry x="-1" relative="1" as="geometry" />
        </mxCell>
        <mxCell id="HY0GFq4OiniCcZNZX5Ss-11" value="N" style="resizable=0;html=1;align=right;verticalAlign=bottom;" connectable="0" vertex="1" parent="HY0GFq4OiniCcZNZX5Ss-9">
          <mxGeometry x="1" relative="1" as="geometry" />
        </mxCell>
        <mxCell id="HY0GFq4OiniCcZNZX5Ss-12" value="pemilik klinik" style="whiteSpace=wrap;html=1;fillColor=#d80073;fontColor=#ffffff;strokeColor=none;" vertex="1" parent="1">
          <mxGeometry x="280" y="50" width="120" height="60" as="geometry" />
        </mxCell>
        <mxCell id="HY0GFq4OiniCcZNZX5Ss-30" value="" style="edgeStyle=orthogonalEdgeStyle;rounded=0;orthogonalLoop=1;jettySize=auto;html=1;endArrow=none;endFill=0;strokeWidth=3;strokeColor=#999999;" edge="1" parent="1" source="HY0GFq4OiniCcZNZX5Ss-14" target="HY0GFq4OiniCcZNZX5Ss-25">
          <mxGeometry relative="1" as="geometry" />
        </mxCell>
        <mxCell id="HY0GFq4OiniCcZNZX5Ss-14" value="pengelola kllinik" style="whiteSpace=wrap;html=1;fillColor=#d80073;fontColor=#ffffff;strokeColor=none;" vertex="1" parent="1">
          <mxGeometry x="480" y="190" width="120" height="60" as="geometry" />
        </mxCell>
        <mxCell id="HY0GFq4OiniCcZNZX5Ss-20" value="" style="edgeStyle=orthogonalEdgeStyle;rounded=1;orthogonalLoop=1;jettySize=auto;html=1;endArrow=none;endFill=0;strokeWidth=3;strokeColor=#999999;" edge="1" parent="1" source="HY0GFq4OiniCcZNZX5Ss-16" target="HY0GFq4OiniCcZNZX5Ss-19">
          <mxGeometry relative="1" as="geometry" />
        </mxCell>
        <mxCell id="HY0GFq4OiniCcZNZX5Ss-16" value="dokter" style="whiteSpace=wrap;html=1;fillColor=#d80073;fontColor=#ffffff;strokeColor=none;" vertex="1" parent="1">
          <mxGeometry x="280" y="330" width="120" height="60" as="geometry" />
        </mxCell>
        <mxCell id="HY0GFq4OiniCcZNZX5Ss-22" value="" style="edgeStyle=orthogonalEdgeStyle;rounded=0;orthogonalLoop=1;jettySize=auto;html=1;endArrow=none;endFill=0;strokeWidth=3;strokeColor=#999999;" edge="1" parent="1" source="HY0GFq4OiniCcZNZX5Ss-19" target="HY0GFq4OiniCcZNZX5Ss-21">
          <mxGeometry relative="1" as="geometry" />
        </mxCell>
        <mxCell id="HY0GFq4OiniCcZNZX5Ss-24" value="" style="edgeStyle=orthogonalEdgeStyle;rounded=0;orthogonalLoop=1;jettySize=auto;html=1;endArrow=none;endFill=0;strokeWidth=3;strokeColor=#999999;" edge="1" parent="1" source="HY0GFq4OiniCcZNZX5Ss-19" target="HY0GFq4OiniCcZNZX5Ss-23">
          <mxGeometry relative="1" as="geometry" />
        </mxCell>
        <mxCell id="HY0GFq4OiniCcZNZX5Ss-19" value="beri_obat" style="rhombus;whiteSpace=wrap;html=1;fillColor=#f0a30a;fontColor=#ffffff;strokeColor=none;" vertex="1" parent="1">
          <mxGeometry x="510" y="330" width="120" height="60" as="geometry" />
        </mxCell>
        <mxCell id="HY0GFq4OiniCcZNZX5Ss-29" value="" style="edgeStyle=orthogonalEdgeStyle;rounded=0;orthogonalLoop=1;jettySize=auto;html=1;endArrow=none;endFill=0;strokeWidth=3;strokeColor=#999999;" edge="1" parent="1" source="HY0GFq4OiniCcZNZX5Ss-21" target="HY0GFq4OiniCcZNZX5Ss-25">
          <mxGeometry relative="1" as="geometry" />
        </mxCell>
        <mxCell id="HY0GFq4OiniCcZNZX5Ss-21" value="obat" style="whiteSpace=wrap;html=1;fillColor=#d80073;fontColor=#ffffff;strokeColor=none;" vertex="1" parent="1">
          <mxGeometry x="710" y="330" width="120" height="60" as="geometry" />
        </mxCell>
        <mxCell id="HY0GFq4OiniCcZNZX5Ss-23" value="apoteker" style="whiteSpace=wrap;html=1;fillColor=#d80073;fontColor=#ffffff;strokeColor=none;" vertex="1" parent="1">
          <mxGeometry x="510" y="470" width="120" height="60" as="geometry" />
        </mxCell>
        <mxCell id="HY0GFq4OiniCcZNZX5Ss-28" value="" style="edgeStyle=orthogonalEdgeStyle;rounded=0;orthogonalLoop=1;jettySize=auto;html=1;endArrow=none;endFill=0;strokeWidth=3;strokeColor=#999999;" edge="1" parent="1" source="HY0GFq4OiniCcZNZX5Ss-25" target="HY0GFq4OiniCcZNZX5Ss-27">
          <mxGeometry relative="1" as="geometry" />
        </mxCell>
        <mxCell id="HY0GFq4OiniCcZNZX5Ss-25" value="order" style="rhombus;whiteSpace=wrap;html=1;fillColor=#f0a30a;fontColor=#ffffff;strokeColor=none;" vertex="1" parent="1">
          <mxGeometry x="710" y="190" width="120" height="60" as="geometry" />
        </mxCell>
        <mxCell id="HY0GFq4OiniCcZNZX5Ss-27" value="suplier" style="whiteSpace=wrap;html=1;fillColor=#d80073;fontColor=#ffffff;strokeColor=none;" vertex="1" parent="1">
          <mxGeometry x="920" y="190" width="120" height="60" as="geometry" />
        </mxCell>
        <mxCell id="HY0GFq4OiniCcZNZX5Ss-31" value="N" style="text;html=1;align=center;verticalAlign=middle;resizable=0;points=[];autosize=1;" vertex="1" parent="1">
          <mxGeometry x="340" y="170" width="20" height="20" as="geometry" />
        </mxCell>
        <mxCell id="HY0GFq4OiniCcZNZX5Ss-32" value="1" style="text;html=1;align=center;verticalAlign=middle;resizable=0;points=[];autosize=1;" vertex="1" parent="1">
          <mxGeometry x="340" y="110" width="20" height="20" as="geometry" />
        </mxCell>
        <mxCell id="HY0GFq4OiniCcZNZX5Ss-33" value="N" style="text;html=1;align=center;verticalAlign=middle;resizable=0;points=[];autosize=1;" vertex="1" parent="1">
          <mxGeometry x="180" y="340" width="20" height="20" as="geometry" />
        </mxCell>
        <mxCell id="HY0GFq4OiniCcZNZX5Ss-34" value="1" style="text;html=1;align=center;verticalAlign=middle;resizable=0;points=[];autosize=1;" vertex="1" parent="1">
          <mxGeometry x="260" y="340" width="20" height="20" as="geometry" />
        </mxCell>
        <mxCell id="HY0GFq4OiniCcZNZX5Ss-35" value="1" style="text;html=1;align=center;verticalAlign=middle;resizable=0;points=[];autosize=1;" vertex="1" parent="1">
          <mxGeometry x="340" y="310" width="20" height="20" as="geometry" />
        </mxCell>
        <mxCell id="HY0GFq4OiniCcZNZX5Ss-36" value="N" style="text;html=1;align=center;verticalAlign=middle;resizable=0;points=[];autosize=1;" vertex="1" parent="1">
          <mxGeometry x="340" y="240" width="20" height="20" as="geometry" />
        </mxCell>
        <mxCell id="HY0GFq4OiniCcZNZX5Ss-37" value="N" style="text;html=1;align=center;verticalAlign=middle;resizable=0;points=[];autosize=1;" vertex="1" parent="1">
          <mxGeometry x="390" y="200" width="20" height="20" as="geometry" />
        </mxCell>
        <mxCell id="HY0GFq4OiniCcZNZX5Ss-38" value="1" style="text;html=1;align=center;verticalAlign=middle;resizable=0;points=[];autosize=1;" vertex="1" parent="1">
          <mxGeometry x="460" y="200" width="20" height="20" as="geometry" />
        </mxCell>
        <mxCell id="HY0GFq4OiniCcZNZX5Ss-39" value="1" style="text;html=1;align=center;verticalAlign=middle;resizable=0;points=[];autosize=1;" vertex="1" parent="1">
          <mxGeometry x="600" y="200" width="20" height="20" as="geometry" />
        </mxCell>
        <mxCell id="HY0GFq4OiniCcZNZX5Ss-40" value="N" style="text;html=1;align=center;verticalAlign=middle;resizable=0;points=[];autosize=1;" vertex="1" parent="1">
          <mxGeometry x="700" y="200" width="20" height="20" as="geometry" />
        </mxCell>
        <mxCell id="HY0GFq4OiniCcZNZX5Ss-41" value="N" style="text;html=1;align=center;verticalAlign=middle;resizable=0;points=[];autosize=1;" vertex="1" parent="1">
          <mxGeometry x="820" y="200" width="20" height="20" as="geometry" />
        </mxCell>
        <mxCell id="HY0GFq4OiniCcZNZX5Ss-42" value="1" style="text;html=1;align=center;verticalAlign=middle;resizable=0;points=[];autosize=1;" vertex="1" parent="1">
          <mxGeometry x="900" y="200" width="20" height="20" as="geometry" />
        </mxCell>
        <mxCell id="HY0GFq4OiniCcZNZX5Ss-43" value="N" style="text;html=1;align=center;verticalAlign=middle;resizable=0;points=[];autosize=1;" vertex="1" parent="1">
          <mxGeometry x="770" y="240" width="20" height="20" as="geometry" />
        </mxCell>
        <mxCell id="HY0GFq4OiniCcZNZX5Ss-44" value="1" style="text;html=1;align=center;verticalAlign=middle;resizable=0;points=[];autosize=1;" vertex="1" parent="1">
          <mxGeometry x="760" y="310" width="20" height="20" as="geometry" />
        </mxCell>
        <mxCell id="HY0GFq4OiniCcZNZX5Ss-45" value="1" style="text;html=1;align=center;verticalAlign=middle;resizable=0;points=[];autosize=1;" vertex="1" parent="1">
          <mxGeometry x="400" y="340" width="20" height="20" as="geometry" />
        </mxCell>
        <mxCell id="HY0GFq4OiniCcZNZX5Ss-46" value="N" style="text;html=1;align=center;verticalAlign=middle;resizable=0;points=[];autosize=1;" vertex="1" parent="1">
          <mxGeometry x="500" y="340" width="20" height="20" as="geometry" />
        </mxCell>
        <mxCell id="HY0GFq4OiniCcZNZX5Ss-47" value="N" style="text;html=1;align=center;verticalAlign=middle;resizable=0;points=[];autosize=1;" vertex="1" parent="1">
          <mxGeometry x="570" y="380" width="20" height="20" as="geometry" />
        </mxCell>
        <mxCell id="HY0GFq4OiniCcZNZX5Ss-48" value="1" style="text;html=1;align=center;verticalAlign=middle;resizable=0;points=[];autosize=1;" vertex="1" parent="1">
          <mxGeometry x="570" y="450" width="20" height="20" as="geometry" />
        </mxCell>
        <mxCell id="HY0GFq4OiniCcZNZX5Ss-49" value="N" style="text;html=1;align=center;verticalAlign=middle;resizable=0;points=[];autosize=1;" vertex="1" parent="1">
          <mxGeometry x="630" y="340" width="20" height="20" as="geometry" />
        </mxCell>
        <mxCell id="HY0GFq4OiniCcZNZX5Ss-50" value="1" style="text;html=1;align=center;verticalAlign=middle;resizable=0;points=[];autosize=1;" vertex="1" parent="1">
          <mxGeometry x="690" y="340" width="20" height="20" as="geometry" />
        </mxCell>
      </root>
    </mxGraphModel>
  </diagram>
</mxfile>
